<?xml version="1.0" encoding="utf-8"?>
<!-- Generator: Adobe Illustrator 26.0.2, SVG Export Plug-In . SVG Version: 6.00 Build 0)  -->
<svg version="1.1" id="Layer_1" xmlns="http://www.w3.org/2000/svg" xmlns:xlink="http://www.w3.org/1999/xlink" x="0px" y="0px"
	 viewBox="0 0 1263.86 374.94" style="enable-background:new 0 0 1263.86 374.94;" xml:space="preserve">
<style type="text/css">
	.st0{fill:#FFFFFF;}
</style>
<g>
	<path class="st0" d="M221.02,14.17c0-1.84-0.37-3.59-1.11-5.23c-0.72-1.59-1.78-3.02-3.14-4.27c-2.65-2.43-5.89-3.72-9.36-3.72
		h-39.79c-3.47,0-6.7,1.29-9.36,3.72c-1.37,1.25-2.42,2.69-3.14,4.28c-0.74,1.62-1.11,3.38-1.11,5.22v119.86h67.01V14.17z"/>
	<path class="st0" d="M370.26,158.17L370.26,158.17c-2.57-2.79-5.85-4.25-9.49-4.25H14.66c-3.77,0-7.15,1.5-9.79,4.35
		c-2.5,2.72-3.83,5.92-3.83,9.27v39.79c0,3.34,1.32,6.55,3.83,9.27c2.62,2.84,6,4.33,9.78,4.33h139.36v139.36
		c0,3.78,1.5,7.16,4.34,9.78c2.71,2.51,5.92,3.84,9.27,3.84h39.79c3.35,0,6.56-1.33,9.27-3.83c2.84-2.62,4.34-6,4.34-9.78V220.92
		h139.75c3.65,0,6.93-1.47,9.49-4.25c2.44-2.65,3.73-5.88,3.73-9.36v-39.79C373.99,164.05,372.7,160.81,370.26,158.17z"/>
</g>
<path class="st0" d="M369.74,4.67c-2.65-2.44-5.89-3.73-9.36-3.73h-39.79c-3.47,0-6.71,1.29-9.36,3.73
	c-2.78,2.56-4.25,5.84-4.25,9.49v61.52v44.73v13.61h13.61H348h12.38c3.35,0,6.56-1.32,9.27-3.83c2.84-2.62,4.34-6,4.34-9.78V14.17
	C373.99,10.52,372.52,7.23,369.74,4.67"/>
<path class="st0" d="M369.74,244.54c-2.65-2.44-5.89-3.73-9.36-3.73H348h-27.41h-13.61v13.22v33.58v72.68c0,3.78,1.5,7.16,4.34,9.78
	c2.71,2.51,5.92,3.83,9.27,3.83h39.79c3.35,0,6.56-1.33,9.27-3.83c2.84-2.62,4.34-6,4.34-9.78V254.03
	C373.99,250.38,372.52,247.09,369.74,244.54"/>
<path class="st0" d="M598.03,287.35c0,7.7-1.31,14.09-3.92,19.16c-2.62,5.07-6.26,8.79-10.92,11.16
	c-4.66,2.37-10.04,3.55-16.11,3.55c-6.08,0-11.45-1.18-16.11-3.55c-4.66-2.37-8.3-6.09-10.92-11.16
	c-2.61-5.07-3.92-11.46-3.92-19.16v-14.63c0-7.7,1.31-14.09,3.92-19.16c2.61-5.07,6.25-8.79,10.92-11.16
	c4.67-2.37,10.04-3.55,16.11-3.55c6.08,0,11.45,1.18,16.11,3.55c4.66,2.37,8.3,6.09,10.92,11.16c2.61,5.07,3.92,11.46,3.92,19.16
	V287.35z M582.82,287.35v-14.63c0-7.14-1.28-12.38-3.84-15.72c-2.56-3.34-6.53-5.01-11.9-5.01c-5.37,0-9.34,1.67-11.9,5.01
	c-2.56,3.34-3.84,8.58-3.84,15.72v14.63c0,7.1,1.28,12.34,3.84,15.72c2.56,3.37,6.53,5.06,11.9,5.06c5.37,0,9.34-1.69,11.9-5.06
	C581.54,299.69,582.82,294.45,582.82,287.35"/>
<path class="st0" d="M673.23,316.03c0,1.2-0.42,2.23-1.27,3.07s-1.87,1.27-3.07,1.27h-10.97c-1.66,0-2.99-0.23-3.97-0.69
	c-0.99-0.46-1.87-1.54-2.65-3.23l-24.07-52.85c-0.28-0.57-0.62-0.85-1.01-0.85c-0.35,0-0.53,0.28-0.53,0.85v54.6
	c0,0.64-0.2,1.16-0.61,1.56c-0.41,0.41-0.89,0.61-1.46,0.61h-9.22c-0.53,0-1.02-0.21-1.48-0.64c-0.46-0.42-0.69-0.94-0.69-1.54
	v-74.16c0-1.2,0.42-2.23,1.27-3.08c0.85-0.85,1.87-1.27,3.07-1.27h11.71c1.2,0,2.15,0.25,2.84,0.74c0.69,0.49,1.33,1.41,1.94,2.76
	l25.28,55.82c0.28,0.57,0.58,0.85,0.9,0.85c0.35,0,0.53-0.34,0.53-1.01v-57.09c0-0.6,0.19-1.1,0.58-1.48s0.88-0.58,1.48-0.58h9.33
	c0.6,0,1.1,0.2,1.48,0.58c0.39,0.39,0.58,0.88,0.58,1.48V316.03z"/>
<path class="st0" d="M702.63,272.09v15.85c0,7.07,1.38,12.24,4.13,15.5c2.76,3.27,6.01,4.9,9.75,4.9c3.78,0,7.37-0.11,10.76-0.32
	V280.3c0-0.57,0.2-1.07,0.61-1.51c0.41-0.44,0.89-0.66,1.46-0.66h10.76c0.57,0,1.06,0.21,1.48,0.64c0.42,0.42,0.64,0.94,0.64,1.54
	v36.47c0,1.41-0.67,2.3-2.01,2.65c-1.8,0.35-3.83,0.67-6.07,0.95c-2.24,0.28-5.05,0.49-8.43,0.64c-3.38,0.14-6.44,0.21-9.2,0.21
	c-3.18,0-6.42-0.56-9.73-1.67c-3.3-1.11-6.46-2.99-9.46-5.65c-3-2.65-5.41-6.14-7.21-10.47s-2.7-9.5-2.7-15.5V272.3
	c0-6.61,0.93-12.13,2.78-16.56c1.86-4.44,4.33-7.89,7.42-10.36c3.09-2.47,6.37-4.18,9.83-5.12c3.46-0.94,7.14-1.4,11.03-1.4
	c3.22,0,6.22,0.34,9.01,1.01c2.79,0.67,5.28,1.46,7.47,2.36c2.19,0.9,3.82,1.69,4.88,2.36c1.59,0.92,2.38,1.91,2.38,2.97v7.26
	c0,1.77-0.9,2.32-2.7,1.64c-2.68-1.1-5.79-2.15-9.3-3.15c-3.52-1.01-7.08-1.51-10.68-1.51c-5.83,0-10.11,1.53-12.83,4.58
	C703.99,259.42,702.63,264.66,702.63,272.09"/>
<path class="st0" d="M841.35,318.2c0,0.64-0.21,1.16-0.64,1.56c-0.42,0.41-0.94,0.61-1.54,0.61h-10.76c-0.53,0-1.02-0.21-1.48-0.64
	c-0.46-0.42-0.69-0.94-0.69-1.54v-33.24h-30.8v33.24c0,0.6-0.23,1.11-0.69,1.54c-0.46,0.42-0.95,0.64-1.48,0.64h-10.76
	c-0.53,0-1.02-0.21-1.48-0.64c-0.46-0.42-0.69-0.94-0.69-1.54v-76.44c0-0.57,0.22-1.05,0.66-1.46c0.44-0.4,0.94-0.61,1.51-0.61
	h10.76c0.57,0,1.07,0.2,1.51,0.61c0.44,0.41,0.66,0.89,0.66,1.46v29.95h30.8v-29.95c0-0.57,0.22-1.05,0.66-1.46
	c0.44-0.4,0.95-0.61,1.51-0.61h10.76c0.64,0,1.16,0.19,1.56,0.56c0.4,0.37,0.61,0.87,0.61,1.51V318.2z"/>
<path class="st0" d="M521.93,318.2c0,0.64-0.21,1.16-0.64,1.56s-0.94,0.61-1.54,0.61H509c-0.53,0-1.02-0.21-1.48-0.64
	c-0.46-0.42-0.69-0.94-0.69-1.54v-33.24h-30.8v33.24c0,0.6-0.23,1.11-0.69,1.54c-0.46,0.42-0.95,0.64-1.48,0.64H463.1
	c-0.53,0-1.02-0.21-1.48-0.64c-0.46-0.42-0.69-0.94-0.69-1.54v-76.44c0-0.57,0.22-1.05,0.66-1.46c0.44-0.4,0.94-0.61,1.51-0.61
	h10.76c0.57,0,1.07,0.2,1.51,0.61c0.44,0.41,0.66,0.89,0.66,1.46v29.95h30.8v-29.95c0-0.57,0.22-1.05,0.66-1.46
	c0.44-0.4,0.95-0.61,1.51-0.61h10.76c0.64,0,1.16,0.19,1.56,0.56c0.41,0.37,0.61,0.87,0.61,1.51V318.2z"/>
<path class="st0" d="M918.27,318.25c-0.02-0.07-0.04-0.16-0.08-0.26l-17.81-68.06c-1.91-7.38-6.94-11.08-15.11-11.08
	c-8.13,0-13.15,3.69-15.05,11.08l-17.81,68.06c0,0.14-0.01,0.25-0.03,0.32c-0.02,0.07-0.04,0.14-0.08,0.21
	c0,0.56,0.19,1.01,0.56,1.35c0.37,0.34,0.84,0.5,1.4,0.5h11.5c0.46,0,0.89-0.19,1.3-0.56c0.41-0.37,0.66-0.81,0.77-1.3l3.68-15.23
	l4.22-17.74l7.85-32.28c0.18-0.67,0.38-1.12,0.61-1.35c0.23-0.23,0.59-0.35,1.09-0.35c0.53,0,0.91,0.11,1.14,0.35
	c0.23,0.23,0.43,0.68,0.61,1.35l7.85,32.28h-13.09l-2.35,12.35h18.36l4.98,20.62c0.11,0.49,0.36,0.93,0.77,1.3
	c0.41,0.37,0.84,0.56,1.3,0.56h11.5c0.57,0,1.03-0.17,1.4-0.5c0.37-0.34,0.56-0.79,0.56-1.35
	C918.3,318.41,918.29,318.33,918.27,318.25"/>
<path class="st0" d="M487.3,44.6v51.42c-0.65-0.11-1.25-0.18-1.79-0.24c-0.54-0.05-1.12-0.08-1.75-0.08c-0.65,0-1.32,0.04-1.98,0.12
	c-0.67,0.08-1.18,0.14-1.55,0.2V44.6c-4.19,0-7.15,0.05-8.89,0.16c-1.74,0.1-4.68,0.37-8.81,0.78c0.05-0.37,0.12-0.74,0.2-1.12
	c0.08-0.38,0.12-0.8,0.12-1.27c0-0.39-0.04-0.81-0.12-1.26c-0.08-0.44-0.14-0.84-0.2-1.18h41.49l-0.16,2.43l0.16,2.4
	c-2.04-0.26-4.53-0.48-7.48-0.67C493.6,44.69,490.52,44.6,487.3,44.6"/>
<path class="st0" d="M517.68,95.86V57.28c0.81,0.1,1.37,0.18,1.69,0.24c0.31,0.05,0.82,0.08,1.53,0.08l3.22-0.31v8.05l0.31-0.98
	c1.49-2.25,3.02-4.02,4.59-5.3c1.86-1.49,3.7-2.24,5.53-2.24c0.91,0,1.76,0.16,2.55,0.47l-1.1,6.75c-1.28-0.42-2.58-0.85-3.89-1.3
	c-2.12,0-3.83,0.65-5.14,1.96c-1.23,1.49-2.01,2.93-2.35,4.32c-0.34,1.39-0.51,3.37-0.51,5.97v20.88l-3.22-0.31
	c-0.6,0-1.06,0.01-1.37,0.04C519.21,95.61,518.59,95.7,517.68,95.86"/>
<path class="st0" d="M579.22,57.28v38.58L576,95.55c-0.58,0-1.03,0.01-1.35,0.04c-0.33,0.02-0.95,0.12-1.86,0.27V88.8
	c-2.67,5.16-6.95,7.73-12.84,7.73c-4.45,0-7.76-1.25-9.93-3.75c-2.17-2.5-3.26-6.46-3.26-11.87V57.28c0.81,0.1,1.37,0.18,1.69,0.24
	c0.31,0.05,0.82,0.08,1.53,0.08l3.22-0.31v21.71c0,4.5,0.72,7.88,2.16,10.13c1.44,2.25,3.94,3.37,7.5,3.37
	c3.69,0,6.36-1.44,8.01-4.32c1.28-2.2,1.92-5.1,1.92-8.71V57.28c0.81,0.1,1.38,0.18,1.71,0.24c0.33,0.05,0.83,0.08,1.51,0.08
	L579.22,57.28z"/>
<path class="st0" d="M594.99,95.86V57.28c0.78,0.1,1.34,0.18,1.67,0.24c0.33,0.05,0.84,0.08,1.55,0.08l3.22-0.31v7.42
	c1.39-2.54,3.18-4.49,5.38-5.85c2.2-1.36,4.68-2.04,7.46-2.04c4.61,0,7.93,1.28,9.97,3.85c2.04,2.57,3.06,6.53,3.06,11.89v23.32
	l-3.22-0.31c-0.58,0-1.03,0.01-1.35,0.04c-0.33,0.03-0.95,0.12-1.86,0.27V74.31c0-4.29-0.54-7.42-1.61-9.38
	c-1.39-2.64-3.85-3.96-7.38-3.96c-3.98,0-6.76,1.45-8.36,4.36c-1.39,2.46-2.08,6.37-2.08,11.74v18.8l-3.22-0.31
	c-0.6,0-1.06,0.01-1.37,0.04C596.52,95.61,595.91,95.7,594.99,95.86"/>
<path class="st0" d="M676.32,57.12v3.06l-8.83-0.82c1.78,1.36,3.16,2.92,4.14,4.69c0.98,1.77,1.47,3.75,1.47,5.95
	c0,4.16-1.69,7.34-5.06,9.54c-3.04,1.99-7.08,2.98-12.13,2.98h-1.45c-1.13,0-2.03,0.22-2.71,0.67c-1.07,0.63-1.61,1.7-1.61,3.22
	c0,1.6,0.59,2.64,1.77,3.12c1.18,0.48,3.15,0.73,5.93,0.73h5.14c9.34,0,14.01,3.59,14.01,10.76c0,4.66-1.89,8.45-5.67,11.38
	c-3.78,2.93-8.71,4.4-14.78,4.4c-3.79,0-7.05-0.92-9.77-2.75c-3.22-2.15-4.83-5.14-4.83-8.99c0-2.8,0.73-5,2.2-6.61
	c1.47-1.61,3.52-2.68,6.16-3.2v-0.67c-1.41-0.32-2.49-0.85-3.22-1.61c-1.07-1.12-1.61-2.79-1.61-4.99c0-1.75,0.51-3.19,1.53-4.32
	c0.73-0.81,2.04-1.67,3.93-2.59c-2.56-1.18-4.44-2.59-5.61-4.24c-1.41-1.94-2.12-4.32-2.12-7.14c0-3.98,1.16-7.07,3.49-9.26
	c2.57-2.41,6.45-3.61,11.66-3.61h1.1l11.11,0.47l2.24,0.16c0.6,0,1.25-0.04,1.94-0.12C675.42,57.24,675.95,57.17,676.32,57.12
	 M659.28,95.07c-8.24,0-12.36,3.21-12.36,9.62c0,3.17,1.04,5.57,3.12,7.2c2.08,1.64,4.9,2.45,8.46,2.45c3.43,0,6.27-0.75,8.52-2.24
	c2.77-1.83,4.16-4.51,4.16-8.05c0-3.74-1.2-6.28-3.61-7.61C665.92,95.53,663.16,95.07,659.28,95.07 M649.31,69.48l-0.16,0.82
	c0,2.78,0.81,5.16,2.42,7.14c1.61,1.99,3.75,2.98,6.42,2.98c2.85,0,5.07-1.01,6.65-3.02c1.58-2.01,2.38-4.49,2.38-7.42
	c0-3.38-0.64-5.98-1.92-7.81c-1.47-2.09-3.72-3.14-6.75-3.14c-2.85,0-5.07,0.96-6.65,2.87C650.1,63.82,649.31,66.34,649.31,69.48"/>
<path class="st0" d="M717.96,49.39l6.44-2.55v10.44h8.52l-0.16,1.77l0.16,1.3h-8.52v20.25l-0.16,2.75c0,3.95,0.56,6.71,1.69,8.28
	c0.97,1.34,2.45,2,4.44,2c0.68,0,1.36-0.08,2.04-0.24c0.68-0.16,1.23-0.3,1.65-0.43v1.96c-1.07,0.42-2.22,0.79-3.45,1.12
	c-1.23,0.33-2.33,0.49-3.3,0.49c-3.17,0-5.47-0.78-6.91-2.35c-1.73-1.81-2.59-4.83-2.59-9.07l0.16-1.3V60.34h-4.99
	c0.13-0.32,0.2-0.8,0.2-1.45c0-0.76-0.07-1.3-0.2-1.61h4.99V49.39z"/>
<path class="st0" d="M773.45,70.31v18.65l-0.16,1.14c0,1.07,0.13,1.85,0.39,2.34c0.26,0.49,0.82,0.73,1.69,0.73l2.59-0.51v1.77
	c-0.71,0.39-1.52,0.67-2.43,0.82l-2.91,0.31c-1.54,0-2.79-0.37-3.73-1.12c-0.94-0.75-1.52-2.03-1.73-3.87l-0.63,0.82
	c-3.43,3.43-7.39,5.14-11.89,5.14c-3.01,0-5.56-0.93-7.65-2.79c-2.09-1.86-3.14-4.25-3.14-7.18c0-3.17,0.93-5.62,2.79-7.36
	c1.86-1.74,5.91-3.15,12.17-4.22c2.75-0.45,4.54-0.8,5.38-1.06c2.09-0.71,3.14-2.12,3.14-4.24c0-3.01-0.8-5.34-2.41-7.01
	c-1.61-1.66-3.96-2.49-7.05-2.49c-2.64,0-4.89,0.69-6.75,2.08c-1.52,1.07-2.43,2.25-2.75,3.53h-0.98v-4.47
	c2.09-1.47,4.19-2.58,6.28-3.36c2.09-0.77,4.34-1.16,6.75-1.16C769.11,56.8,773.45,61.31,773.45,70.31 M750.88,53.59h-2.71
	l9.97-13.5h4.32l9.97,13.5h-2.71l-9.34-8.52L750.88,53.59z M767.02,87.5V75.76l-2.91,0.47c-4.76,0.97-7.71,1.73-8.83,2.28
	c-3.22,1.44-4.83,3.74-4.83,6.91c0,2.51,0.69,4.4,2.06,5.65c1.37,1.26,3.32,1.88,5.83,1.88c1.12,0,2.29-0.29,3.49-0.88
	c1.2-0.59,2.18-1.3,2.94-2.14c0.42-0.34,0.9-0.78,1.43-1.32C766.75,88.08,767.02,87.71,767.02,87.5"/>
<path class="st0" d="M791.11,95.86V57.28c0.81,0.1,1.38,0.18,1.71,0.24c0.33,0.05,0.83,0.08,1.51,0.08l3.22-0.31v6.91
	c1.41-2.41,2.99-4.2,4.75-5.38c2.04-1.33,4.42-2,7.14-2c2.64,0,5.05,0.71,7.22,2.12c2.17,1.41,3.68,3.39,4.51,5.93
	c1.62-2.69,3.43-4.71,5.44-6.04c2-1.33,4.38-2,7.12-2c4.71,0,8.11,1.36,10.21,4.08c1.88,2.49,2.83,6.37,2.83,11.66v23.32l-3.22-0.31
	c-0.6,0-1.06,0.01-1.37,0.04c-0.31,0.03-0.93,0.12-1.84,0.27V74.31c0-4.21-0.51-7.31-1.53-9.3c-1.39-2.69-3.89-4.04-7.5-4.04
	c-3.59,0-6.1,1.45-7.54,4.36c-1.07,2.09-1.61,4.99-1.61,8.68v21.86l-3.22-0.31c-0.58,0-1.03,0.01-1.35,0.04
	c-0.33,0.03-0.95,0.12-1.86,0.27V72.23c0-7.51-2.84-11.27-8.52-11.27c-3.79,0-6.45,1.15-7.97,3.45c-1.12,1.73-1.69,4.38-1.69,7.97
	v23.47l-3.22-0.31c-0.58,0-1.03,0.01-1.35,0.04C792.65,95.61,792.03,95.7,791.11,95.86"/>
<path class="st0" d="M474.43,166.93v25.4c-0.65-0.11-1.24-0.18-1.77-0.24c-0.52-0.05-1.11-0.08-1.77-0.08
	c-0.65,0-1.32,0.04-1.98,0.12c-0.67,0.08-1.19,0.14-1.55,0.2v-55.15h14.29c7.77,0,13.17,0.98,16.21,2.94
	c3.03,1.96,4.55,5.38,4.55,10.24c0,4.76-1.38,8.39-4.14,10.89c-2.76,2.5-7.12,4.34-13.09,5.51c-0.89,0.11-1.86,0.21-2.9,0.32
	c-1.05,0.1-1.62,0.16-1.73,0.16c-0.92,0-2.1-0.05-3.55-0.16C475.54,166.98,474.69,166.93,474.43,166.93 M474.43,140.4v23.47
	l3.53,0.16l4.36-0.16c3.95-0.37,7.05-1.73,9.3-4.08c2.25-2.36,3.37-5.34,3.37-8.95c0-2.88-0.69-5.21-2.08-6.99
	c-1.54-1.99-3.85-3.14-6.91-3.45l-5.3-0.16L474.43,140.4z"/>
<path class="st0" d="M517.52,192.33v-60.45l3.22,0.16l3.22-0.16v29.28c1.39-2.54,3.18-4.49,5.38-5.85c2.2-1.36,4.68-2.04,7.46-2.04
	c4.55,0,7.86,1.32,9.93,3.94c2.07,2.63,3.1,6.56,3.1,11.8v23.32l-3.22-0.32c-0.58,0-1.03,0.01-1.35,0.04
	c-0.33,0.02-0.95,0.12-1.86,0.27v-21.55c0-4.66-0.61-7.98-1.84-9.97c-1.39-2.25-3.77-3.38-7.14-3.38c-3.58,0-6.22,1.07-7.91,3.22
	c-1.69,2.15-2.53,5.37-2.53,9.66v22.02l-3.22-0.32c-0.6,0-1.06,0.01-1.37,0.04C519.05,192.08,518.43,192.17,517.52,192.33"/>
<path class="st0" d="M594.84,166.77v18.65l-0.16,1.14c0,1.07,0.13,1.85,0.39,2.34c0.26,0.49,0.82,0.73,1.69,0.73l2.59-0.51v1.77
	c-0.71,0.39-1.52,0.67-2.43,0.82l-2.91,0.31c-1.54,0-2.79-0.37-3.73-1.12s-1.52-2.03-1.73-3.87l-0.63,0.82
	c-3.43,3.43-7.39,5.14-11.89,5.14c-3.01,0-5.56-0.93-7.65-2.79c-2.09-1.86-3.14-4.25-3.14-7.18c0-3.17,0.93-5.62,2.79-7.36
	c1.86-1.74,5.91-3.15,12.17-4.22c2.75-0.45,4.54-0.8,5.38-1.06c2.09-0.71,3.14-2.12,3.14-4.24c0-3.01-0.8-5.35-2.41-7.01
	c-1.61-1.66-3.96-2.49-7.05-2.49c-2.64,0-4.89,0.69-6.75,2.08c-1.52,1.07-2.43,2.25-2.75,3.53h-0.98v-4.47
	c2.09-1.46,4.19-2.58,6.28-3.36c2.09-0.77,4.34-1.16,6.75-1.16C590.5,153.27,594.84,157.77,594.84,166.77 M572.27,150.05h-2.71
	l9.97-13.5h4.32l9.97,13.5h-2.71l-9.34-8.52L572.27,150.05z M572.23,133.96h-1.92c0.45-2.2,1.35-4.03,2.71-5.5
	c1.36-1.47,2.93-2.2,4.71-2.2c0.84,0,1.47,0.08,1.91,0.24c0.43,0.16,0.8,0.3,1.1,0.43c0.3,0.13,1.07,0.55,2.3,1.25l2.55,1.3
	c0.45,0.11,0.8,0.2,1.06,0.28c0.26,0.08,0.55,0.14,0.86,0.2c0.5,0,0.99-0.14,1.47-0.41c0.48-0.27,0.84-0.58,1.08-0.92
	s0.48-0.78,0.73-1.32s0.45-1.05,0.61-1.55h2.08c-0.55,2.3-1.41,4.19-2.59,5.65c-1.39,1.7-3.05,2.55-4.99,2.55
	c-1.18,0-2.28-0.24-3.3-0.71c-0.78-0.5-1.4-0.85-1.84-1.06c-0.68-0.37-1.43-0.75-2.24-1.16c-0.81-0.4-1.56-0.61-2.24-0.61
	l-1.61,0.31c-0.6,0.24-1.07,0.61-1.41,1.12C572.91,132.37,572.57,133.07,572.23,133.96 M588.4,183.97v-11.74l-2.91,0.47
	c-4.76,0.97-7.71,1.73-8.83,2.28c-3.22,1.44-4.83,3.74-4.83,6.91c0,2.51,0.69,4.4,2.06,5.65c1.37,1.26,3.32,1.88,5.83,1.88
	c1.12,0,2.29-0.29,3.49-0.88c1.2-0.59,2.18-1.3,2.94-2.14c0.42-0.34,0.9-0.78,1.43-1.32C588.13,184.55,588.4,184.18,588.4,183.97"/>
<path class="st0" d="M642.41,153.74v38.58l-3.22-0.31c-0.58,0-1.03,0.01-1.35,0.04c-0.33,0.02-0.95,0.12-1.86,0.27v-7.07
	c-2.67,5.16-6.95,7.73-12.84,7.73c-4.45,0-7.76-1.25-9.93-3.75s-3.26-6.46-3.26-11.87v-23.63c0.81,0.1,1.37,0.18,1.69,0.24
	s0.82,0.08,1.53,0.08l3.22-0.31v21.71c0,4.5,0.72,7.88,2.16,10.13c1.44,2.25,3.94,3.37,7.5,3.37c3.69,0,6.36-1.44,8.01-4.32
	c1.28-2.2,1.92-5.1,1.92-8.71v-22.18c0.81,0.1,1.38,0.18,1.71,0.24c0.33,0.05,0.83,0.08,1.51,0.08L642.41,153.74z"/>
<path class="st0" d="M685.66,145.85l6.44-2.55v10.44h8.52l-0.16,1.77l0.16,1.3h-8.52v20.25l-0.16,2.75c0,3.95,0.56,6.71,1.69,8.28
	c0.97,1.33,2.45,2,4.44,2c0.68,0,1.36-0.08,2.04-0.24c0.68-0.16,1.23-0.3,1.65-0.43v1.96c-1.07,0.42-2.22,0.79-3.45,1.12
	c-1.23,0.33-2.33,0.49-3.3,0.49c-3.17,0-5.47-0.78-6.91-2.35c-1.73-1.81-2.59-4.83-2.59-9.07l0.16-1.3V156.8h-4.99
	c0.13-0.32,0.2-0.8,0.2-1.45c0-0.76-0.07-1.3-0.2-1.61h4.99V145.85z"/>
<path class="st0" d="M714.15,192.33v-60.45l3.22,0.16l3.22-0.16v29.28c1.39-2.54,3.18-4.49,5.38-5.85c2.2-1.36,4.68-2.04,7.46-2.04
	c4.55,0,7.86,1.32,9.93,3.94c2.07,2.63,3.1,6.56,3.1,11.8v23.32l-3.22-0.32c-0.58,0-1.03,0.01-1.35,0.04
	c-0.33,0.02-0.95,0.12-1.86,0.27v-21.55c0-4.66-0.61-7.98-1.84-9.97c-1.39-2.25-3.77-3.38-7.14-3.38c-3.58,0-6.22,1.07-7.91,3.22
	c-1.69,2.15-2.53,5.37-2.53,9.66v22.02l-3.22-0.32c-0.6,0-1.06,0.01-1.37,0.04C715.68,192.08,715.06,192.17,714.15,192.33"/>
<path class="st0" d="M793.87,153.74v38.58l-3.22-0.31c-0.58,0-1.03,0.01-1.35,0.04c-0.33,0.02-0.95,0.12-1.86,0.27v-7.07
	c-2.67,5.16-6.95,7.73-12.84,7.73c-4.45,0-7.76-1.25-9.93-3.75s-3.26-6.46-3.26-11.87v-23.63c0.81,0.1,1.37,0.18,1.69,0.24
	s0.82,0.08,1.53,0.08l3.22-0.31v21.71c0,4.5,0.72,7.88,2.16,10.13c1.44,2.25,3.94,3.37,7.5,3.37c3.69,0,6.36-1.44,8.01-4.32
	c1.28-2.2,1.92-5.1,1.92-8.71v-22.18c0.81,0.1,1.38,0.18,1.71,0.24c0.33,0.05,0.83,0.08,1.51,0.08L793.87,153.74z"/>
<path class="st0" d="M836.64,166.77v18.65l-0.16,1.14c0,1.07,0.13,1.85,0.39,2.34c0.26,0.48,0.82,0.73,1.69,0.73l2.59-0.51v1.77
	c-0.71,0.39-1.52,0.67-2.43,0.83l-2.9,0.31c-1.54,0-2.79-0.37-3.73-1.12c-0.94-0.75-1.52-2.04-1.73-3.87l-0.63,0.82
	c-3.43,3.43-7.39,5.14-11.89,5.14c-3.01,0-5.56-0.93-7.65-2.79c-2.09-1.86-3.14-4.25-3.14-7.18c0-3.17,0.93-5.62,2.79-7.36
	c1.86-1.74,5.91-3.15,12.17-4.22c2.75-0.44,4.54-0.8,5.38-1.06c2.09-0.71,3.14-2.12,3.14-4.24c0-3.01-0.81-5.34-2.41-7.01
	c-1.61-1.66-3.96-2.49-7.05-2.49c-2.64,0-4.89,0.69-6.75,2.08c-1.52,1.07-2.43,2.25-2.75,3.53h-0.98v-4.47
	c2.09-1.47,4.19-2.58,6.28-3.36c2.09-0.77,4.34-1.16,6.75-1.16C832.3,153.27,836.64,157.77,836.64,166.77 M814.08,150.05h-2.71
	l9.97-13.5h4.32l9.97,13.5h-2.71l-9.34-8.52L814.08,150.05z M830.21,183.97v-11.74l-2.91,0.47c-4.76,0.97-7.71,1.73-8.83,2.28
	c-3.22,1.44-4.83,3.74-4.83,6.91c0,2.51,0.69,4.4,2.06,5.65c1.37,1.26,3.32,1.88,5.83,1.88c1.12,0,2.29-0.29,3.49-0.88
	c1.2-0.59,2.18-1.3,2.94-2.14c0.42-0.34,0.9-0.78,1.43-1.32C829.94,184.55,830.21,184.18,830.21,183.97 M822.12,204.14
	c-0.97,0-1.83-0.37-2.57-1.12c-0.75-0.75-1.12-1.6-1.12-2.57s0.37-1.82,1.12-2.57c0.75-0.75,1.6-1.12,2.57-1.12
	c1.02,0,1.89,0.36,2.61,1.08c0.72,0.72,1.08,1.59,1.08,2.61c0,0.97-0.37,1.83-1.12,2.57C823.95,203.77,823.09,204.14,822.12,204.14"
	/>
<path class="st0" d="M854.3,145.85l6.44-2.55v10.44h8.52l-0.16,1.77l0.16,1.3h-8.52v20.25l-0.16,2.75c0,3.95,0.56,6.71,1.69,8.28
	c0.97,1.33,2.45,2,4.44,2c0.68,0,1.36-0.08,2.04-0.24c0.68-0.16,1.23-0.3,1.65-0.43v1.96c-1.07,0.42-2.22,0.79-3.45,1.12
	c-1.23,0.33-2.33,0.49-3.3,0.49c-3.17,0-5.47-0.78-6.91-2.35c-1.73-1.81-2.59-4.83-2.59-9.07l0.16-1.3V156.8h-4.99
	c0.13-0.32,0.2-0.8,0.2-1.45c0-0.76-0.07-1.3-0.2-1.61h4.99V145.85z"/>
<path class="st0" d="M930.88,141.06v51.42c-0.65-0.1-1.25-0.18-1.79-0.24c-0.54-0.05-1.12-0.08-1.75-0.08
	c-0.65,0-1.32,0.04-1.98,0.12c-0.67,0.08-1.18,0.14-1.55,0.2v-51.42c-4.19,0-7.15,0.05-8.89,0.16c-1.74,0.11-4.68,0.37-8.81,0.78
	c0.05-0.37,0.12-0.74,0.2-1.12c0.08-0.38,0.12-0.8,0.12-1.27c0-0.39-0.04-0.81-0.12-1.26c-0.08-0.45-0.14-0.84-0.2-1.18h41.49
	l-0.16,2.43l0.16,2.39c-2.04-0.26-4.53-0.48-7.48-0.67C937.17,141.15,934.09,141.06,930.88,141.06"/>
<path class="st0" d="M961.09,192.33v-60.45l3.22,0.16l3.22-0.16v29.28c1.39-2.54,3.18-4.49,5.38-5.85c2.2-1.36,4.68-2.04,7.46-2.04
	c4.55,0,7.86,1.32,9.93,3.94c2.07,2.63,3.1,6.56,3.1,11.8v23.32l-3.22-0.32c-0.58,0-1.03,0.01-1.35,0.04
	c-0.33,0.02-0.95,0.12-1.86,0.27v-21.55c0-4.66-0.61-7.98-1.84-9.97c-1.39-2.25-3.77-3.38-7.14-3.38c-3.58,0-6.22,1.07-7.91,3.22
	c-1.69,2.15-2.53,5.37-2.53,9.66v22.02l-3.22-0.32c-0.6,0-1.06,0.01-1.37,0.04C962.63,192.08,962.01,192.17,961.09,192.33"/>
<path class="st0" d="M1038.42,166.77v18.65l-0.16,1.14c0,1.07,0.13,1.85,0.39,2.33c0.26,0.49,0.82,0.73,1.69,0.73l2.59-0.51v1.77
	c-0.71,0.39-1.52,0.67-2.43,0.82l-2.91,0.31c-1.54,0-2.79-0.37-3.73-1.12c-0.94-0.75-1.52-2.04-1.73-3.87l-0.63,0.83
	c-3.43,3.43-7.39,5.14-11.89,5.14c-3.01,0-5.56-0.93-7.65-2.79c-2.09-1.86-3.14-4.25-3.14-7.18c0-3.17,0.93-5.62,2.79-7.36
	c1.86-1.74,5.91-3.15,12.17-4.22c2.75-0.45,4.54-0.8,5.38-1.06c2.09-0.71,3.14-2.12,3.14-4.24c0-3.01-0.81-5.35-2.41-7.01
	c-1.61-1.66-3.96-2.49-7.05-2.49c-2.64,0-4.89,0.69-6.75,2.08c-1.52,1.07-2.43,2.25-2.75,3.53h-0.98v-4.47
	c2.09-1.46,4.19-2.58,6.28-3.35c2.09-0.77,4.34-1.16,6.75-1.16C1034.07,153.27,1038.42,157.77,1038.42,166.77 M1015.85,150.05h-2.71
	l9.97-13.5h4.32l9.97,13.5h-2.71l-9.34-8.52L1015.85,150.05z M1031.98,183.97v-11.74l-2.91,0.47c-4.76,0.97-7.71,1.73-8.83,2.28
	c-3.22,1.44-4.83,3.74-4.83,6.91c0,2.51,0.69,4.4,2.06,5.65c1.37,1.26,3.32,1.88,5.83,1.88c1.13,0,2.29-0.29,3.49-0.88
	c1.2-0.59,2.19-1.3,2.94-2.14c0.42-0.34,0.9-0.78,1.43-1.32S1031.98,184.17,1031.98,183.97 M1028.45,126.19l0.78-2.16
	c0.18-0.42,0.51-0.82,0.98-1.22c0.42-0.52,1.27-1.03,2.57-1.51c1.3-0.48,2.58-0.73,3.87-0.73c0.97,0,1.63,0.04,2,0.12
	c0.37,0.08,1.07,0.29,2.12,0.65c1.05,0.35,1.82,0.84,2.32,1.47c1.28,1.31,1.92,2.86,1.92,4.67c0,0.65-0.2,1.41-0.61,2.26
	c-0.41,0.85-1.22,1.92-2.45,3.2l-2,1.53l-1.53,1.06c-0.45,0.42-0.71,0.76-0.78,1.04c-0.08,0.27-0.14,0.49-0.2,0.65l-0.16,2.83h-2.08
	v-2.43c0-0.47,0.07-1.04,0.2-1.71c0.13-0.67,0.4-1.33,0.82-1.98l2.83-3.69l0.75-1.53c0.26-0.81,0.45-1.65,0.55-2.51
	c0-1.91-1.28-3.04-3.85-3.37c-1.41,0.24-2.38,0.72-2.91,1.45c0.31,0.65,0.52,1.29,0.63,1.92c0,0.81-0.22,1.5-0.67,2.06
	c-0.45,0.56-1.13,0.9-2.04,1c-0.81,0-1.52-0.31-2.14-0.92C1028.75,127.71,1028.45,127,1028.45,126.19"/>
<path class="st0" d="M1056.07,192.33v-38.58c0.81,0.1,1.38,0.18,1.71,0.24c0.33,0.05,0.83,0.08,1.51,0.08l3.22-0.31v6.91
	c1.41-2.41,2.99-4.2,4.75-5.38c2.04-1.34,4.42-2,7.14-2c2.64,0,5.05,0.71,7.22,2.12c2.17,1.41,3.68,3.39,4.51,5.93
	c1.62-2.69,3.43-4.71,5.44-6.04c2-1.34,4.38-2,7.12-2c4.71,0,8.11,1.36,10.21,4.08c1.88,2.49,2.83,6.37,2.83,11.66v23.32l-3.22-0.32
	c-0.6,0-1.06,0.01-1.37,0.04c-0.31,0.02-0.93,0.12-1.84,0.27v-21.55c0-4.21-0.51-7.32-1.53-9.3c-1.39-2.69-3.89-4.04-7.5-4.04
	c-3.59,0-6.1,1.45-7.54,4.36c-1.07,2.09-1.61,4.98-1.61,8.67v21.86l-3.22-0.32c-0.58,0-1.03,0.01-1.35,0.04
	c-0.33,0.02-0.95,0.12-1.86,0.27V168.7c0-7.51-2.84-11.27-8.52-11.27c-3.79,0-6.45,1.15-7.97,3.45c-1.12,1.73-1.69,4.38-1.69,7.97
	v23.47l-3.22-0.32c-0.58,0-1.03,0.01-1.35,0.04C1057.61,192.08,1056.99,192.17,1056.07,192.33"/>
<path class="st0" d="M1156.55,192.33v-38.58c0.81,0.1,1.38,0.18,1.71,0.24s0.83,0.08,1.51,0.08l3.22-0.31v6.91
	c1.41-2.41,2.99-4.2,4.75-5.38c2.04-1.34,4.42-2,7.14-2c2.64,0,5.05,0.71,7.22,2.12c2.17,1.41,3.68,3.39,4.51,5.93
	c1.62-2.69,3.43-4.71,5.44-6.04c2-1.34,4.38-2,7.12-2c4.71,0,8.11,1.36,10.21,4.08c1.88,2.49,2.83,6.37,2.83,11.66v23.32l-3.22-0.32
	c-0.6,0-1.06,0.01-1.37,0.04c-0.31,0.02-0.93,0.12-1.84,0.27v-21.55c0-4.21-0.51-7.32-1.53-9.3c-1.39-2.69-3.89-4.04-7.5-4.04
	c-3.59,0-6.1,1.45-7.54,4.36c-1.07,2.09-1.61,4.98-1.61,8.67v21.86l-3.22-0.32c-0.58,0-1.03,0.01-1.35,0.04
	c-0.33,0.02-0.95,0.12-1.86,0.27V168.7c0-7.51-2.84-11.27-8.52-11.27c-3.79,0-6.45,1.15-7.97,3.45c-1.12,1.73-1.69,4.38-1.69,7.97
	v23.47l-3.22-0.32c-0.58,0-1.03,0.01-1.35,0.04C1158.09,192.08,1157.47,192.17,1156.55,192.33"/>
<path class="st0" d="M1241.61,191.86l-16.25-38.11c0.65,0.11,1.27,0.18,1.86,0.24c0.59,0.05,1.26,0.08,2.02,0.08
	c0.58,0,1.24-0.04,1.98-0.12s1.37-0.14,1.86-0.2c1.6,5.05,3.31,9.89,5.14,14.52c1.83,4.63,4.08,9.76,6.75,15.39
	c1.7-3.53,3.75-8.29,6.14-14.27c2.39-5.98,4.36-11.19,5.91-15.64c0.45,0.11,0.88,0.18,1.3,0.24c0.42,0.05,0.9,0.08,1.45,0.08
	c0.42,0,1.27-0.1,2.55-0.31c-5.52,12.27-8.57,19.05-9.15,20.33c-4.29,9.45-7.18,15.91-8.67,19.39c-3.27,7.46-6.01,13.94-8.2,19.43
	c-0.5-0.11-0.94-0.18-1.33-0.24c-0.39-0.05-0.86-0.08-1.41-0.08c-0.76,0-1.32,0.02-1.69,0.08c-0.47,0.16-0.81,0.24-1.02,0.24
	L1241.61,191.86z M1234.54,147.15h-2.08c0.42-2.14,1.33-3.96,2.73-5.45c1.4-1.49,3.02-2.24,4.85-2.24c0.84,0,1.43,0.05,1.77,0.16
	l3.37,1.77c0.89,0.52,1.79,0.96,2.71,1.3c0.21,0.05,0.52,0.14,0.92,0.27c0.4,0.13,0.69,0.2,0.84,0.2c0.5,0,0.99-0.14,1.47-0.41
	c0.48-0.27,0.86-0.61,1.12-1c0.26-0.39,0.53-0.87,0.81-1.43c0.27-0.56,0.49-1.01,0.65-1.35h1.92c-0.42,2.25-1.26,4.14-2.51,5.65
	c-1.39,1.7-3.07,2.55-5.06,2.55c-0.78,0-1.35-0.05-1.71-0.16c-0.35-0.11-1.5-0.64-3.43-1.61c-1.02-0.52-1.77-0.9-2.24-1.14
	c-0.91-0.42-1.66-0.63-2.24-0.63l-1.61,0.31c-0.55,0.21-1.03,0.63-1.43,1.26C1234.98,145.81,1234.7,146.47,1234.54,147.15"/>
</svg>
